<?xml version="1.0" encoding="utf-8"?>
<!-- Generator: Adobe Illustrator 13.0.0, SVG Export Plug-In . SVG Version: 6.00 Build 14948)  -->
<!DOCTYPE svg PUBLIC "-//W3C//DTD SVG 1.1//EN" "http://www.w3.org/Graphics/SVG/1.1/DTD/svg11.dtd">
<svg width="960" height="500" style="margin-left: 0px;"><g transform="translate(0,20)" style="shape-rendering: crispEdges;"><g class="depth"><g class="children"><rect class="child" x="941.8866096505728" y="475.3733055676877" width="18.113390349427164" height="4.62669443231232"></rect><rect class="child" x="941.8866096505728" y="468.0250261751917" width="18.113390349427164" height="7.348279392495954"></rect><rect class="child" x="927.8898989260156" y="468.0250261751917" width="13.99671072455726" height="11.974973824808274"></rect><rect class="child" x="927.8898989260156" y="455.8965270449372" width="32.110101073984424" height="12.12849913025451"></rect><rect class="child" x="904.369761196664" y="455.8965270449372" width="23.52013772935163" height="24.103472955062784"></rect><rect class="child" x="874.3048894904492" y="455.8965270449372" width="30.064871706214717" height="24.103472955062784"></rect><rect class="child" x="926.218185834765" y="430.0672684367673" width="33.78181416523489" height="25.829258608169937"></rect><rect class="child" x="874.3048894904492" y="430.0672684367673" width="51.91329634431577" height="25.829258608169937"></rect><rect class="parent" x="874.3048894904492" y="430.0672684367673" width="85.69511050955077" height="49.93273156323272"><title>868</title></rect><text dy=".75em" x="880.3048894904492" y="436.0672684367673">Datu Odin Sinsuat</text></g><g class="children"><rect class="child" x="941.5544156750743" y="424.4548696773919" width="18.445584324925676" height="5.61239875937531"></rect><rect class="child" x="941.5544156750743" y="415.6353859126592" width="18.445584324925676" height="8.819483764732752"></rect><rect class="child" x="941.5544156750743" y="404.4105883939084" width="18.445584324925676" height="11.224797518750734"></rect><rect class="child" x="909.0825016030697" y="404.4105883939084" width="32.471914072004665" height="25.656680042858852"></rect><rect class="child" x="874.3048894904492" y="404.4105883939084" width="34.77761211262043" height="25.656680042858852"></rect><rect class="child" x="926.250745951774" y="372.71365856517474" width="33.74925404822602" height="31.696929828733687"></rect><rect class="child" x="874.3048894904492" y="372.71365856517474" width="51.94585646132475" height="31.696929828733687"></rect><rect class="parent" x="874.3048894904492" y="372.71365856517474" width="85.69511050955077" height="57.35360987159254"><title>997</title></rect><text dy=".75em" x="880.3048894904492" y="378.71365856517474">Datu Hoffer</text></g><g class="children"><rect class="child" x="855.3375591690556" y="475.58160685452566" width="18.967330321393547" height="4.41839314547434"></rect><rect class="child" x="855.3375591690556" y="467.2646315218682" width="18.967330321393547" height="8.316975332657478"></rect><rect class="child" x="820.1125171436104" y="467.2646315218682" width="35.22504202544519" height="12.735368478131818"></rect><rect class="child" x="820.1125171436104" y="451.70928859500714" width="54.19237234683874" height="15.555342926860988"></rect><rect class="child" x="781.9513288993735" y="451.70928859500714" width="38.16118824423688" height="28.290711404992862"></rect><rect class="child" x="720.7888765079252" y="451.70928859500714" width="61.162452391448255" height="28.290711404992862"></rect><rect class="child" x="799.1306107809877" y="428.36383207806074" width="75.17427870946153" height="23.3454565169464"></rect><rect class="child" x="720.7888765079252" y="428.36383207806074" width="78.34173427306246" height="23.3454565169464"></rect><rect class="parent" x="720.7888765079252" y="428.36383207806074" width="153.516012982524" height="51.63616792193926"><title>1,608</title></rect><text dy=".75em" x="726.7888765079252" y="434.36383207806074">Datu Piang</text></g><g class="children"><rect class="child" x="860.2041445946613" y="415.4283889412693" width="14.100744895787784" height="12.935443136791434"></rect><rect class="child" x="837.7191730040807" y="415.4283889412693" width="22.484971590580585" height="12.935443136791434"></rect><rect class="child" x="809.1365819991055" y="415.4283889412693" width="28.582591004975257" height="12.935443136791434"></rect><rect class="child" x="809.1365819991055" y="402.41729993818086" width="65.16830749134374" height="13.0110890030885"></rect><rect class="child" x="768.6676330321777" y="402.41729993818086" width="40.46894896692777" height="25.946532139879935"></rect><rect class="child" x="720.7888765079252" y="402.41729993818086" width="47.87875652425248" height="25.946532139879935"></rect><rect class="child" x="820.2008676176894" y="372.71365856517474" width="54.104021872759745" height="29.70364137300612"></rect><rect class="child" x="720.7888765079252" y="372.71365856517474" width="99.41199110976413" height="29.70364137300612"></rect><rect class="parent" x="720.7888765079252" y="372.71365856517474" width="153.516012982524" height="55.650173512886"><title>1,733</title></rect><text dy=".75em" x="726.7888765079252" y="378.71365856517474">Datu Abdullah Sangk</text></g><g class="children"><rect class="child" x="707.7539156582018" y="468.27605950674223" width="13.034960849723575" height="11.723940493257771"></rect><rect class="child" x="707.7539156582018" y="453.9047776117812" width="13.034960849723575" height="14.371281894961044"></rect><rect class="child" x="676.7722695805978" y="453.9047776117812" width="30.981646077603955" height="26.095222388218815"></rect><rect class="child" x="676.7722695805978" y="428.8175251870558" width="44.01660692732753" height="25.087252424725364"></rect><rect class="child" x="638.0530661127955" y="428.8175251870558" width="38.719203467802345" height="51.18247481294418"></rect><rect class="child" x="595.5775220100571" y="428.8175251870558" width="42.475544102738354" height="51.18247481294418"></rect><rect class="child" x="671.055805177544" y="372.71365856517474" width="49.733071330381335" height="56.10386662188108"></rect><rect class="child" x="595.5775220100571" y="372.71365856517474" width="75.4782831674869" height="56.10386662188108"></rect><rect class="parent" x="595.5775220100571" y="372.71365856517474" width="125.21135449786823" height="107.28634143482526"><title>2,725</title></rect><text dy=".75em" x="601.5775220100571" y="378.71365856517474">Datu Unsak</text></g><g class="children"><rect class="child" x="924.7111512071408" y="363.6334147812254" width="35.2888487928592" height="9.080243783949356"></rect><rect class="child" x="924.7111512071408" y="349.38441684333566" width="35.2888487928592" height="14.248997937889726"></rect><rect class="child" x="897.240789871382" y="349.38441684333566" width="27.47036133575864" height="23.329241721839082"></rect><rect class="child" x="897.240789871382" y="325.8195262152154" width="62.75921012861795" height="23.56489062812028"></rect><rect class="child" x="851.301468554454" y="325.8195262152154" width="45.939321316928044" height="46.894132349959364"></rect><rect class="child" x="791.801111883101" y="325.8195262152154" width="59.50035667135296" height="46.89413234995931"></rect><rect class="child" x="893.8554692454778" y="275.43764277172784" width="66.14453075452218" height="50.38188344348754"></rect><rect class="child" x="791.801111883101" y="275.43764277172784" width="102.05435736237678" height="50.38188344348754"></rect><rect class="parent" x="791.801111883101" y="275.43764277172784" width="168.19888811689896" height="97.2760157934469"><title>3,319</title></rect><text dy=".75em" x="797.801111883101" y="281.43764277172784">Rajah Buayan</text></g><g class="children"><rect class="child" x="754.0613461893904" y="359.52065083307764" width="37.73976569371064" height="13.193007732097158"></rect><rect class="child" x="754.0613461893904" y="345.8051477452538" width="37.73976569371064" height="13.715503087823777"></rect><rect class="child" x="719.2528244330553" y="345.8051477452538" width="34.80852175633515" height="26.908510819920934"></rect><rect class="child" x="719.2528244330553" y="331.05982742221636" width="72.54828745004579" height="14.745320323037504"></rect><rect class="child" x="664.1019240224168" y="331.05982742221636" width="55.15090041063843" height="41.65383114295838"></rect><rect class="child" x="595.5775220100571" y="331.05982742221636" width="68.5244020123597" height="41.65383114295838"></rect><rect class="child" x="720.7210219652234" y="275.43764277172784" width="71.08008991787767" height="55.62218465048852"></rect><rect class="child" x="595.5775220100571" y="275.43764277172784" width="125.14349995516625" height="55.62218465048852"></rect><rect class="parent" x="595.5775220100571" y="275.43764277172784" width="196.22358987304392" height="97.2760157934469"><title>3,872</title></rect><text dy=".75em" x="601.5775220100571" y="281.43764277172784">Datu Anggal Midtimbang</text></g><g class="children"><rect class="child" x="546.8338697697025" y="470.08872213767324" width="48.74365224035466" height="9.911277862326699"></rect><rect class="child" x="546.8338697697025" y="453.3002310647525" width="48.74365224035466" height="16.78849107292075"></rect><rect class="child" x="546.8338697697025" y="435.80379157309414" width="48.74365224035466" height="17.496439491658407"></rect><rect class="child" x="458.2698883535889" y="459.2934640619534" width="88.56398141611356" height="20.706535938046557"></rect><rect class="child" x="458.2698883535889" y="435.80379157309414" width="88.56398141611356" height="23.4896724888593"></rect><rect class="child" x="409.97240226646403" y="435.80379157309414" width="48.29748608712487" height="44.196208426905855"></rect><rect class="child" x="356.8786300321189" y="435.80379157309414" width="53.093772234345124" height="44.196208426905855"></rect><rect class="child" x="356.8786300321189" y="390.3064798139943" width="238.69889197793822" height="45.49731175909983"></rect><rect class="parent" x="356.8786300321189" y="390.3064798139943" width="238.69889197793822" height="89.69352018600568"><title>4,343</title></rect><text dy=".75em" x="362.8786300321189" y="396.3064798139943">Talayan</text></g><g class="children"><rect class="child" x="552.5588180633147" y="381.5972868502512" width="43.01870394674245" height="8.709192963743192"></rect><rect class="child" x="552.5588180633147" y="364.8664687883236" width="43.01870394674245" height="16.730818061927607"></rect><rect class="child" x="517.0974539991081" y="364.8664687883236" width="35.46136406420658" height="25.4400110256708"></rect><rect class="child" x="517.0974539991081" y="335.84601176644725" width="78.48006801094891" height="29.02045702187627"></rect><rect class="child" x="449.1176027001201" y="335.84601176644725" width="67.97985129898814" height="54.46046804754707"></rect><rect class="child" x="356.8786300321189" y="335.84601176644725" width="92.23897266800117" height="54.46046804754707"></rect><rect class="child" x="498.79226187814777" y="275.43764277172784" width="96.78526013190924" height="60.40836899471941"></rect><rect class="child" x="356.8786300321189" y="275.43764277172784" width="141.91363184602886" height="60.40836899471941"></rect><rect class="parent" x="356.8786300321189" y="275.43764277172784" width="238.69889197793822" height="114.86883704226648"><title>5,562</title></rect><text dy=".75em" x="362.8786300321189" y="281.43764277172784">Shariff Aguak</text></g><g class="children"><rect class="child" x="926.7323382984304" y="271.43669271317134" width="33.267661701569864" height="4.000950058556498"></rect><rect class="child" x="926.7323382984304" y="259.8783925440085" width="33.267661701569864" height="11.558300169162862"></rect><rect class="child" x="926.7323382984304" y="247.1346256908289" width="33.267661701569864" height="12.74376685317958"></rect><rect class="child" x="864.3772446378969" y="247.1346256908289" width="62.3550936605335" height="28.30301708089894"></rect><rect class="child" x="864.3772446378969" y="214.44953857008232" width="95.62275536210336" height="32.68508712074657"></rect><rect class="child" x="797.4493989575744" y="214.44953857008232" width="66.92784568032243" height="60.98810420164551"></rect><rect class="child" x="692.0461250842163" y="214.44953857008232" width="105.4032738733581" height="60.98810420164551"></rect><rect class="child" x="692.0461250842163" y="171.4359073111239" width="267.9538749157837" height="43.01363125895841"></rect><rect class="parent" x="692.0461250842163" y="171.4359073111239" width="267.9538749157837" height="104.00173546060392"><title>5,653</title></rect><text dy=".75em" x="698.0461250842163" y="177.4359073111239">Guindulungan</text></g><g class="children"><rect class="child" x="656.3381672938568" y="272.4004013732364" width="35.70795779035939" height="3.03724139849146"></rect><rect class="child" x="656.3381672938568" y="259.42309721604613" width="35.70795779035939" height="12.977304157190247"></rect><rect class="child" x="599.3901311626807" y="259.42309721604613" width="56.94803613117608" height="16.014545555681707"></rect><rect class="child" x="599.3901311626807" y="220.79665178938535" width="92.65599392153547" height="38.62644542666072"></rect><rect class="child" x="485.9835251652417" y="220.79665178938535" width="113.40660599743904" height="54.64099098234249"></rect><rect class="child" x="356.8786300321189" y="220.79665178938535" width="129.1048951331228" height="54.64099098234249"></rect><rect class="child" x="536.4469125421521" y="171.4359073111239" width="155.59921254206427" height="49.36074447826144"></rect><rect class="child" x="356.8786300321189" y="171.4359073111239" width="179.56828251003316" height="49.36074447826144"></rect><rect class="parent" x="356.8786300321189" y="171.4359073111239" width="335.1674950520974" height="104.00173546060392"><title>7,071</title></rect><text dy=".75em" x="362.8786300321189" y="177.4359073111239">Datu Saudi Ampatuan</text></g><g class="children"><rect class="child" x="282.0572162871427" y="467.41569892557254" width="74.82141374497627" height="12.584301074427458"></rect><rect class="child" x="282.0572162871427" y="447.6497810076236" width="74.82141374497621" height="19.76591791794897"></rect><rect class="child" x="223.69346585063363" y="447.6497810076236" width="58.363750436509065" height="32.350218992376426"></rect><rect class="child" x="223.69346585063363" y="414.9664361903828" width="133.18516418148528" height="32.683344817240766"></rect><rect class="child" x="126.13552259418985" y="414.9664361903828" width="97.55794325644378" height="65.03356380961719"></rect><rect class="child" x="0" y="414.9664361903828" width="126.13552259418985" height="65.03356380961719"></rect><rect class="child" x="216.49743339959932" y="345.084363269216" width="140.3811966325196" height="69.88207292116681"></rect><rect class="child" x="0" y="345.084363269216" width="216.49743339959932" height="69.88207292116681"></rect><rect class="parent" x="0" y="345.084363269216" width="356.8786300321189" height="134.915636730784"><title>9,767</title></rect><text dy=".75em" x="6" y="351.084363269216">Talitay</text></g><g class="children"><rect class="child" x="317.441894288135" y="306.4584143530934" width="39.43673574398389" height="38.62594891612258"></rect><rect class="child" x="244.18400976694838" y="306.4584143530934" width="73.25788452118664" height="38.62594891612258"></rect><rect class="child" x="244.18400976694838" y="278.46225658829337" width="112.69462026517053" height="27.996157764800046"></rect><rect class="child" x="170.04086498316587" y="278.46225658829337" width="74.1431447837825" height="66.62210668092263"></rect><rect class="child" x="85.02043249158294" y="278.46225658829337" width="85.02043249158294" height="66.62210668092263"></rect><rect class="child" x="0" y="278.46225658829337" width="85.02043249158294" height="66.62210668092263"></rect><rect class="child" x="210.2672878286813" y="171.4359073111239" width="146.6113422034376" height="107.02634927716946"></rect><rect class="child" x="0" y="171.4359073111239" width="210.2672878286813" height="107.02634927716946"></rect><rect class="parent" x="0" y="171.4359073111239" width="356.8786300321189" height="173.64845595809214"><title>12,571</title></rect><text dy=".75em" x="6" y="177.4359073111239">Mamasapano</text></g><g class="children"><rect class="child" x="863.744513729888" y="155.40565020726433" width="96.25548627011199" height="16.030257103859583"></rect><rect class="child" x="863.744513729888" y="130.3103595334906" width="96.25548627011199" height="25.095290673773718"></rect><rect class="child" x="788.5861203408965" y="130.3103595334906" width="75.15839338899139" height="41.1255477776333"></rect><rect class="child" x="788.5861203408965" y="88.78218401537701" width="171.41387965910337" height="41.5281755181136"></rect><rect class="child" x="663.0376802983035" y="88.78218401537701" width="125.54844004259303" height="82.6537232957469"></rect><rect class="child" x="500.68953122659883" y="88.78218401537701" width="162.34814907170465" height="82.6537232957469"></rect><rect class="child" x="779.2631073673331" y="0" width="180.73689263266692" height="88.78218401537701"></rect><rect class="child" x="500.68953122659883" y="0" width="278.57357614073425" height="88.78218401537701"></rect><rect class="parent" x="500.68953122659883" y="0" width="459.31046877340117" height="171.4359073111239"><title>15,973</title></rect><text dy=".75em" x="506.68953122659883" y="6">Saidona Mustapha</text></g><g class="children"><rect class="child" x="395.71612480138765" y="155.4220213573248" width="104.97340642521124" height="16.013885953799104"></rect><rect class="child" x="395.71612480138765" y="130.29759618054317" width="104.97340642521118" height="25.124425176781642"></rect><rect class="child" x="313.870420933329" y="130.29759618054317" width="81.84570386805865" height="41.138311130580746"></rect><rect class="child" x="313.870420933329" y="88.78985826623682" width="186.81911029326983" height="41.50773791430635"></rect><rect class="child" x="177.03675585901186" y="88.78985826623682" width="136.83366507431714" height="82.64604904488709"></rect><rect class="child" x="0" y="88.78985826623682" width="177.03675585901186" height="82.64604904488709"></rect><rect class="child" x="303.70056950648654" y="0" width="196.9889617201123" height="88.78985826623682"></rect><rect class="child" x="0" y="0" width="303.70056950648654" height="88.78985826623682"></rect><rect class="parent" x="0" y="0" width="500.68953122659883" height="171.4359073111239"><title>17,412</title></rect><text dy=".75em" x="6" y="6">Datu Salibo</text></g></g><g class="grandparent"><rect y="-20" width="960" height="20"></rect><text x="6" y="-14" dy=".75em">flare</text></g></g></svg>